<svg width="144" height="40" viewBox="0 0 144 40" fill="none" xmlns="http://www.w3.org/2000/svg">
<g clip-path="url(#clip0_1324_12342)">
<path d="M19.2528 0.871338C8.21185 0.871338 0.5 8.71524 0.5 19.9442C0.5 31.1731 8.38688 39.0988 19.2528 39.2375C30.4407 39.3797 38.0056 31.1234 38.0056 19.9442C38.0056 8.76502 30.4687 0.871338 19.2528 0.871338ZM22.5644 35.888C17.394 36.8338 10.2387 33.2283 7.87579 22.1772C5.85944 12.7368 8.96098 5.57199 15.5666 4.18882C22.3053 2.7772 28.5644 8.125 30.4197 17.6045C32.4081 27.7668 29.366 34.6435 22.5644 35.8916V35.888Z" fill="white"/>
<path d="M98.8272 5.15669C98.8272 5.15669 99.0408 1.38763 95.9252 1.32719C95.9252 1.32719 95.1131 1.28452 91.875 1.26674L91.8855 23.2979C91.8855 34.0433 97.5845 39.0498 108.058 39.0498C118.532 39.0498 124.277 33.9473 124.277 23.2019L124.259 5.15314C124.259 5.15314 124.441 1.35563 121.483 1.27741C121.483 1.27741 120.545 1.27741 117.307 1.26318L117.296 23.2411C117.296 31.8637 114.079 36.4185 107.999 36.4185C101.918 36.4185 98.8272 31.9846 98.8272 23.2411V5.15669Z" fill="white"/>
<path d="M136.757 38.5627H143.499C143.499 38.5627 142.204 37.5351 142.204 35.8355V5.1568C142.204 5.1568 142.376 1.38774 139.428 1.28107C139.428 1.28107 138.49 1.28107 135.252 1.26685V36.7564C135.444 37.6596 135.882 38.2854 136.757 38.5627Z" fill="white"/>
<path d="M80.6135 35.8355V5.1568C80.6135 5.1568 80.7885 1.38774 77.8375 1.28107C77.8375 1.28107 76.8993 1.28107 73.6648 1.26685V18.096H55.4581V5.1568C55.4581 5.1568 55.7241 1.35929 52.6821 1.28107C52.6821 1.28107 51.7439 1.28107 48.5059 1.26685V36.7031C48.6949 37.6347 49.1325 38.2783 50.0216 38.5592H56.7568C56.7568 38.5592 55.4581 37.5316 55.4581 35.8319V21.2215H73.6648V36.7138C73.8538 37.6382 74.2914 38.2818 75.177 38.5627H81.9122C81.9122 38.5627 80.6135 37.5351 80.6135 35.8355Z" fill="white"/>
</g>
<defs>
<clipPath id="clip0_1324_12342">
<rect width="143" height="38.3662" fill="white" transform="translate(0.5 0.871338)"/>
</clipPath>
</defs>
</svg>
