<svg width="115" height="30" viewBox="0 0 115 30" fill="none" xmlns="http://www.w3.org/2000/svg">
<g clip-path="url(#clip0_33_18526)">
<path d="M15.3785 0.222656C6.57662 0.222656 0.428711 6.26525 0.428711 14.9155C0.428711 23.5658 6.71615 29.6714 15.3785 29.7782C24.2976 29.8878 30.3283 23.5274 30.3283 14.9155C30.3283 6.3036 24.3199 0.222656 15.3785 0.222656ZM18.0185 27.1979C13.8966 27.9265 8.19243 25.149 6.30871 16.6357C4.70127 9.36324 7.17383 3.84383 12.4399 2.77829C17.812 1.69085 22.8017 5.81055 24.2808 13.1132C25.8659 20.9417 23.4408 26.2392 18.0185 27.2007V27.1979Z" fill="#313131"/>
<path d="M78.8128 3.52282C78.8128 3.52282 78.9831 0.619308 76.4993 0.572742C76.4993 0.572742 75.8519 0.539872 73.2705 0.526177L73.2789 17.498C73.2789 25.7758 77.8221 29.6325 86.1719 29.6325C94.5217 29.6325 99.1012 25.7018 99.1012 17.4241L99.0873 3.52008C99.0873 3.52008 99.2324 0.594656 96.8742 0.534394C96.8742 0.534394 96.1263 0.534394 93.5449 0.523438L93.5366 17.4542C93.5366 24.0967 90.9719 27.6055 86.1245 27.6055C81.277 27.6055 78.8128 24.1898 78.8128 17.4542V3.52282Z" fill="#313131"/>
<path d="M109.053 29.2584H114.427C114.427 29.2584 113.395 28.4668 113.395 27.1575V3.52399C113.395 3.52399 113.532 0.620475 111.182 0.5383C111.182 0.5383 110.434 0.5383 107.853 0.527344V27.8669C108.006 28.5627 108.355 29.0448 109.053 29.2584Z" fill="#313131"/>
<path d="M64.2945 27.1575V3.52399C64.2945 3.52399 64.4341 0.620475 62.0815 0.5383C62.0815 0.5383 61.3336 0.5383 58.755 0.527344V13.4918H44.2406V3.52399C44.2406 3.52399 44.4527 0.598562 42.0275 0.5383C42.0275 0.5383 41.2796 0.5383 38.6982 0.527344V27.8258C38.8489 28.5435 39.1978 29.0393 39.9066 29.2557H45.2759C45.2759 29.2557 44.2406 28.4641 44.2406 27.1547V15.8995H58.755V27.834C58.9057 28.5462 59.2545 29.042 59.9606 29.2584H65.3299C65.3299 29.2584 64.2945 28.4668 64.2945 27.1575Z" fill="#313131"/>
</g>
<defs>
<clipPath id="clip0_33_18526">
<rect width="114" height="29.5556" fill="white" transform="translate(0.428711 0.222656)"/>
</clipPath>
</defs>
</svg>
